<mxfile host="app.diagrams.net" modified="2024-05-26T03:05:08.775Z" agent="Mozilla/5.0 (Macintosh; Intel Mac OS X 10_15_7) AppleWebKit/537.36 (KHTML, like Gecko) Chrome/125.0.0.0 Safari/537.36" etag="rbNzrZATpS6QQzowWB4_" version="24.4.8" type="device">
  <diagram name="PÃ¡gina-1" id="_Z3rFUGbRK0ZZ9o_89Y7">
    <mxGraphModel dx="954" dy="640" grid="1" gridSize="10" guides="1" tooltips="1" connect="1" arrows="1" fold="1" page="1" pageScale="1" pageWidth="827" pageHeight="1169" math="0" shadow="0">
      <root>
        <mxCell id="0" />
        <mxCell id="1" parent="0" />
        <mxCell id="oi6k7LvY8bHPwtPHkKat-1" value="&lt;u&gt;:PhotoController&lt;/u&gt;" style="shape=umlLifeline;perimeter=lifelinePerimeter;whiteSpace=wrap;html=1;container=1;dropTarget=0;collapsible=0;recursiveResize=0;outlineConnect=0;portConstraint=eastwest;newEdgeStyle={&quot;edgeStyle&quot;:&quot;elbowEdgeStyle&quot;,&quot;elbow&quot;:&quot;vertical&quot;,&quot;curved&quot;:0,&quot;rounded&quot;:0};" parent="1" vertex="1">
          <mxGeometry x="130" y="50" width="100" height="380" as="geometry" />
        </mxCell>
        <mxCell id="oi6k7LvY8bHPwtPHkKat-2" value="&lt;u&gt;:PhotoService&lt;/u&gt;" style="shape=umlLifeline;perimeter=lifelinePerimeter;whiteSpace=wrap;html=1;container=1;dropTarget=0;collapsible=0;recursiveResize=0;outlineConnect=0;portConstraint=eastwest;newEdgeStyle={&quot;edgeStyle&quot;:&quot;elbowEdgeStyle&quot;,&quot;elbow&quot;:&quot;vertical&quot;,&quot;curved&quot;:0,&quot;rounded&quot;:0};" parent="1" vertex="1">
          <mxGeometry x="290" y="50" width="100" height="380" as="geometry" />
        </mxCell>
        <mxCell id="oi6k7LvY8bHPwtPHkKat-7" value="&lt;u&gt;:OpenAI&lt;/u&gt;&lt;div&gt;&lt;u&gt;Completion&lt;/u&gt;&lt;/div&gt;" style="shape=umlLifeline;perimeter=lifelinePerimeter;whiteSpace=wrap;html=1;container=1;dropTarget=0;collapsible=0;recursiveResize=0;outlineConnect=0;portConstraint=eastwest;newEdgeStyle={&quot;edgeStyle&quot;:&quot;elbowEdgeStyle&quot;,&quot;elbow&quot;:&quot;vertical&quot;,&quot;curved&quot;:0,&quot;rounded&quot;:0};" parent="1" vertex="1">
          <mxGeometry x="450" y="50" width="100" height="380" as="geometry" />
        </mxCell>
        <mxCell id="oi6k7LvY8bHPwtPHkKat-8" value="&lt;u&gt;:OpenAI&lt;/u&gt;&lt;div&gt;&lt;u&gt;Embeddings&lt;/u&gt;&lt;/div&gt;" style="shape=umlLifeline;perimeter=lifelinePerimeter;whiteSpace=wrap;html=1;container=1;dropTarget=0;collapsible=0;recursiveResize=0;outlineConnect=0;portConstraint=eastwest;newEdgeStyle={&quot;edgeStyle&quot;:&quot;elbowEdgeStyle&quot;,&quot;elbow&quot;:&quot;vertical&quot;,&quot;curved&quot;:0,&quot;rounded&quot;:0};" parent="1" vertex="1">
          <mxGeometry x="610" y="50" width="100" height="380" as="geometry" />
        </mxCell>
        <mxCell id="oi6k7LvY8bHPwtPHkKat-9" value="" style="endArrow=open;startArrow=none;endFill=0;startFill=0;endSize=8;html=1;verticalAlign=bottom;labelBackgroundColor=none;strokeWidth=1;rounded=0;" parent="1" edge="1">
          <mxGeometry width="160" relative="1" as="geometry">
            <mxPoint x="20" y="130" as="sourcePoint" />
            <mxPoint x="180" y="130" as="targetPoint" />
          </mxGeometry>
        </mxCell>
        <mxCell id="oi6k7LvY8bHPwtPHkKat-10" value="POST /photo" style="edgeLabel;html=1;align=center;verticalAlign=middle;resizable=0;points=[];" parent="oi6k7LvY8bHPwtPHkKat-9" vertex="1" connectable="0">
          <mxGeometry x="0.3125" y="-3" relative="1" as="geometry">
            <mxPoint x="-25" y="-13" as="offset" />
          </mxGeometry>
        </mxCell>
        <mxCell id="oi6k7LvY8bHPwtPHkKat-11" value="" style="endArrow=open;startArrow=none;endFill=0;startFill=0;endSize=8;html=1;verticalAlign=bottom;labelBackgroundColor=none;strokeWidth=1;rounded=0;" parent="1" edge="1">
          <mxGeometry width="160" relative="1" as="geometry">
            <mxPoint x="180" y="160" as="sourcePoint" />
            <mxPoint x="339.5" y="160" as="targetPoint" />
          </mxGeometry>
        </mxCell>
        <mxCell id="oi6k7LvY8bHPwtPHkKat-12" value="uploadPhoto()" style="edgeLabel;html=1;align=center;verticalAlign=middle;resizable=0;points=[];" parent="oi6k7LvY8bHPwtPHkKat-11" vertex="1" connectable="0">
          <mxGeometry x="0.3125" y="-3" relative="1" as="geometry">
            <mxPoint x="-25" y="-13" as="offset" />
          </mxGeometry>
        </mxCell>
        <mxCell id="oi6k7LvY8bHPwtPHkKat-13" value="" style="endArrow=open;startArrow=none;endFill=0;startFill=0;endSize=8;html=1;verticalAlign=bottom;labelBackgroundColor=none;strokeWidth=1;rounded=0;" parent="1" edge="1">
          <mxGeometry width="160" relative="1" as="geometry">
            <mxPoint x="340" y="180" as="sourcePoint" />
            <mxPoint x="340" y="210" as="targetPoint" />
            <Array as="points">
              <mxPoint x="370" y="180" />
              <mxPoint x="370" y="210" />
            </Array>
          </mxGeometry>
        </mxCell>
        <mxCell id="oi6k7LvY8bHPwtPHkKat-14" value="uploadPhoto()" style="edgeLabel;html=1;align=center;verticalAlign=middle;resizable=0;points=[];" parent="oi6k7LvY8bHPwtPHkKat-13" vertex="1" connectable="0">
          <mxGeometry x="0.3125" y="-3" relative="1" as="geometry">
            <mxPoint x="47" y="-29" as="offset" />
          </mxGeometry>
        </mxCell>
        <mxCell id="oi6k7LvY8bHPwtPHkKat-15" value="" style="endArrow=open;startArrow=none;endFill=0;startFill=0;endSize=8;html=1;verticalAlign=bottom;labelBackgroundColor=none;strokeWidth=1;rounded=0;" parent="1" edge="1">
          <mxGeometry width="160" relative="1" as="geometry">
            <mxPoint x="340" y="240" as="sourcePoint" />
            <mxPoint x="499.5" y="240" as="targetPoint" />
          </mxGeometry>
        </mxCell>
        <mxCell id="oi6k7LvY8bHPwtPHkKat-16" value="getImageTextRepresentation()" style="edgeLabel;html=1;align=center;verticalAlign=middle;resizable=0;points=[];" parent="oi6k7LvY8bHPwtPHkKat-15" vertex="1" connectable="0">
          <mxGeometry x="0.3125" y="-3" relative="1" as="geometry">
            <mxPoint x="-25" y="-13" as="offset" />
          </mxGeometry>
        </mxCell>
        <mxCell id="oi6k7LvY8bHPwtPHkKat-18" value="" style="endArrow=open;startArrow=none;endFill=0;startFill=0;endSize=8;html=1;verticalAlign=bottom;labelBackgroundColor=none;strokeWidth=1;rounded=0;" parent="1" target="oi6k7LvY8bHPwtPHkKat-8" edge="1">
          <mxGeometry width="160" relative="1" as="geometry">
            <mxPoint x="340" y="280" as="sourcePoint" />
            <mxPoint x="499.5" y="280" as="targetPoint" />
          </mxGeometry>
        </mxCell>
        <mxCell id="oi6k7LvY8bHPwtPHkKat-19" value="getTextVectorRepresentation()" style="edgeLabel;html=1;align=center;verticalAlign=middle;resizable=0;points=[];" parent="oi6k7LvY8bHPwtPHkKat-18" vertex="1" connectable="0">
          <mxGeometry x="0.3125" y="-3" relative="1" as="geometry">
            <mxPoint x="-25" y="-13" as="offset" />
          </mxGeometry>
        </mxCell>
        <mxCell id="oi6k7LvY8bHPwtPHkKat-20" value="&lt;u&gt;:Pinecone&lt;/u&gt;&lt;div&gt;&lt;u&gt;Service&lt;/u&gt;&lt;/div&gt;" style="shape=umlLifeline;perimeter=lifelinePerimeter;whiteSpace=wrap;html=1;container=1;dropTarget=0;collapsible=0;recursiveResize=0;outlineConnect=0;portConstraint=eastwest;newEdgeStyle={&quot;edgeStyle&quot;:&quot;elbowEdgeStyle&quot;,&quot;elbow&quot;:&quot;vertical&quot;,&quot;curved&quot;:0,&quot;rounded&quot;:0};" parent="1" vertex="1">
          <mxGeometry x="770" y="50" width="100" height="380" as="geometry" />
        </mxCell>
        <mxCell id="oi6k7LvY8bHPwtPHkKat-21" value="" style="endArrow=open;startArrow=none;endFill=0;startFill=0;endSize=8;html=1;verticalAlign=bottom;labelBackgroundColor=none;strokeWidth=1;rounded=0;" parent="1" target="oi6k7LvY8bHPwtPHkKat-20" edge="1">
          <mxGeometry width="160" relative="1" as="geometry">
            <mxPoint x="340" y="320" as="sourcePoint" />
            <mxPoint x="660" y="320" as="targetPoint" />
          </mxGeometry>
        </mxCell>
        <mxCell id="oi6k7LvY8bHPwtPHkKat-22" value="upsertVector()" style="edgeLabel;html=1;align=center;verticalAlign=middle;resizable=0;points=[];" parent="oi6k7LvY8bHPwtPHkKat-21" vertex="1" connectable="0">
          <mxGeometry x="0.3125" y="-3" relative="1" as="geometry">
            <mxPoint x="-25" y="-13" as="offset" />
          </mxGeometry>
        </mxCell>
        <mxCell id="oi6k7LvY8bHPwtPHkKat-23" value="&lt;u&gt;:S3Service&lt;/u&gt;" style="shape=umlLifeline;perimeter=lifelinePerimeter;whiteSpace=wrap;html=1;container=1;dropTarget=0;collapsible=0;recursiveResize=0;outlineConnect=0;portConstraint=eastwest;newEdgeStyle={&quot;edgeStyle&quot;:&quot;elbowEdgeStyle&quot;,&quot;elbow&quot;:&quot;vertical&quot;,&quot;curved&quot;:0,&quot;rounded&quot;:0};" parent="1" vertex="1">
          <mxGeometry x="930" y="50" width="100" height="380" as="geometry" />
        </mxCell>
        <mxCell id="oi6k7LvY8bHPwtPHkKat-24" value="" style="endArrow=open;startArrow=none;endFill=0;startFill=0;endSize=8;html=1;verticalAlign=bottom;labelBackgroundColor=none;strokeWidth=1;rounded=0;" parent="1" edge="1">
          <mxGeometry width="160" relative="1" as="geometry">
            <mxPoint x="340.25" y="370" as="sourcePoint" />
            <mxPoint x="979.75" y="370" as="targetPoint" />
          </mxGeometry>
        </mxCell>
        <mxCell id="oi6k7LvY8bHPwtPHkKat-25" value="putObject()" style="edgeLabel;html=1;align=center;verticalAlign=middle;resizable=0;points=[];" parent="oi6k7LvY8bHPwtPHkKat-24" vertex="1" connectable="0">
          <mxGeometry x="0.3125" y="-3" relative="1" as="geometry">
            <mxPoint x="-130" y="-13" as="offset" />
          </mxGeometry>
        </mxCell>
        <mxCell id="oi6k7LvY8bHPwtPHkKat-27" value="" style="html=1;verticalAlign=bottom;labelBackgroundColor=none;endArrow=block;endFill=1;dashed=1;rounded=0;" parent="1" edge="1">
          <mxGeometry width="160" relative="1" as="geometry">
            <mxPoint x="339.5000000000002" y="400" as="sourcePoint" />
            <mxPoint x="179.32352941176464" y="400" as="targetPoint" />
          </mxGeometry>
        </mxCell>
        <mxCell id="oi6k7LvY8bHPwtPHkKat-28" value="Image" style="edgeLabel;html=1;align=center;verticalAlign=middle;resizable=0;points=[];" parent="oi6k7LvY8bHPwtPHkKat-27" vertex="1" connectable="0">
          <mxGeometry x="0.3555" relative="1" as="geometry">
            <mxPoint x="29" y="-10" as="offset" />
          </mxGeometry>
        </mxCell>
      </root>
    </mxGraphModel>
  </diagram>
</mxfile>
